# xmcd
#
# Track frame offsets:
#	150
#	15632
#	26808
#	43795
#	62172
#	86480
#	122291
#	140946
#	156454
#	181492
#	196644
#	216492
#	233452
#	254928
#	255241
#	275719
#	292181
#	306440
#
# Disc length: 4320 seconds
#
# Revision: 0
# Processed by: cddbd v1.5.2PL0 Copyright (c) Steve Scherf et al.
# Submitted via: audiograbber 1.83.01
#
DISCID=1710de12
DTITLE=Various Artist - Willy´s Musicmachine Rock
DYEAR=1900
DGENRE=gugu
TTITLE0=HARD ROCK CAFE - CAROLE KING
TTITLE1=ARMS OF MARY - SUTHERLAND BROTHERS and QUICVER 
TTITLE2=LONESOME LOSER - LITTLE RIVER BAND
TTITLE3=MIDNIGHT SPECIAL - CCR
TTITLE4=MOTHER - JOHN LENNON
TTITLE5=FOOL - DEEP PURPLE 
TTITLE6=FIVE MILES OUT - MIKE OLDFIELD
TTITLE7=T.N.T. - AC/DC
TTITLE8=THE PARK - URIAH HEEP
TTITLE9=HARLEM SHUFFEL - ROLLING STONES
TTITLE10=WILDWOOD SALOON (LIVE) - RACHEL SWEET
TTITLE11=I DON´T LIKE MONDAY - BOOMTOWN RATS
TTITLE12=BONGO MAN - JIMMY CLIFF
TTITLE13=LEER
TTITLE14=YOUR TURN - MUNICH
TTITLE15=AFTER THE GOLD RUSH - NIL YOUNG
TTITLE16=???
TTITLE17=???
EXTD=
EXTT0=
EXTT1=
EXTT2=
EXTT3=
EXTT4=
EXTT5=
EXTT6=
EXTT7=
EXTT8=
EXTT9=
EXTT10=
EXTT11=
EXTT12=
EXTT13=
EXTT14=
EXTT15=
EXTT16=
EXTT17=
PLAYORDER=
